<?xml version="1.0" encoding="UTF-8" standalone="no"?>
<svg
   xmlns:dc="http://purl.org/dc/elements/1.1/"
   xmlns:cc="http://creativecommons.org/ns#"
   xmlns:rdf="http://www.w3.org/1999/02/22-rdf-syntax-ns#"
   xmlns:svg="http://www.w3.org/2000/svg"
   xmlns="http://www.w3.org/2000/svg"
   xmlns:sodipodi="http://sodipodi.sourceforge.net/DTD/sodipodi-0.dtd"
   xmlns:inkscape="http://www.inkscape.org/namespaces/inkscape"
   version="1.1"
   id="Capa_1"
   x="0px"
   y="0px"
   viewBox="0 0 512 512"
   style="enable-background:new 0 0 512 512;"
   xml:space="preserve"
   sodipodi:docname="left-arrow.svg"
   inkscape:version="1.0.2-2 (e86c870879, 2021-01-15)"><metadata
   id="metadata43"><rdf:RDF><cc:Work
       rdf:about=""><dc:format>image/svg+xml</dc:format><dc:type
         rdf:resource="http://purl.org/dc/dcmitype/StillImage" /><dc:title></dc:title></cc:Work></rdf:RDF></metadata><defs
   id="defs41" /><sodipodi:namedview
   pagecolor="#ffffff"
   bordercolor="#666666"
   borderopacity="1"
   objecttolerance="10"
   gridtolerance="10"
   guidetolerance="10"
   inkscape:pageopacity="0"
   inkscape:pageshadow="2"
   inkscape:window-width="2160"
   inkscape:window-height="1346"
   id="namedview39"
   showgrid="false"
   inkscape:zoom="1.4355469"
   inkscape:cx="256"
   inkscape:cy="256"
   inkscape:window-x="-11"
   inkscape:window-y="-11"
   inkscape:window-maximized="1"
   inkscape:current-layer="Capa_1" />
<g
   id="g6"
   style="fill:#1a99ff;fill-opacity:1"
   transform="matrix(-1,0,0,1,512.00025,0)">
	<g
   id="g4"
   style="fill:#1a99ff;fill-opacity:1">
		<path
   d="m 506.134,241.843 c -0.006,-0.006 -0.011,-0.013 -0.018,-0.019 l -104.504,-104 c -7.829,-7.791 -20.492,-7.762 -28.285,0.068 -7.792,7.829 -7.762,20.492 0.067,28.284 L 443.558,236 H 20 c -11.046,0 -20,8.954 -20,20 0,11.046 8.954,20 20,20 h 423.557 l -70.162,69.824 c -7.829,7.792 -7.859,20.455 -0.067,28.284 7.793,7.831 20.457,7.858 28.285,0.068 l 104.504,-104 c 0.006,-0.006 0.011,-0.013 0.018,-0.019 7.833,-7.818 7.808,-20.522 -10e-4,-28.314 z"
   id="path2"
   style="fill:#1a99ff;fill-opacity:1" />
	</g>
</g>
<g
   id="g8">
</g>
<g
   id="g10">
</g>
<g
   id="g12">
</g>
<g
   id="g14">
</g>
<g
   id="g16">
</g>
<g
   id="g18">
</g>
<g
   id="g20">
</g>
<g
   id="g22">
</g>
<g
   id="g24">
</g>
<g
   id="g26">
</g>
<g
   id="g28">
</g>
<g
   id="g30">
</g>
<g
   id="g32">
</g>
<g
   id="g34">
</g>
<g
   id="g36">
</g>
</svg>
